<svg xmlns="http://www.w3.org/2000/svg" width="1267" height="367" viewBox="0 0 1267 367" role="img" aria-label="Pre-Sales Compliance Platform"><defs><linearGradient id="dul" gradientUnits="userSpaceOnUse" x1="7.99" y1="93.21" x2="160.33" y2="0.00"><stop offset="0" stop-color="#2d7cde"/><stop offset="1" stop-color="#489ff8"/></linearGradient><linearGradient id="dur" gradientUnits="userSpaceOnUse" x1="160.33" y1="0.00" x2="321.72" y2="95.35"><stop offset="0" stop-color="#5fb4fd"/><stop offset="1" stop-color="#75c1fd"/></linearGradient><linearGradient id="dr" gradientUnits="userSpaceOnUse" x1="321.72" y1="95.35" x2="321.72" y2="257.81"><stop offset="0" stop-color="#eff3f6"/><stop offset="1" stop-color="#e6edf3"/></linearGradient><linearGradient id="dvr" gradientUnits="userSpaceOnUse" x1="321.72" y1="257.81" x2="152.34" y2="360.08"><stop offset="0" stop-color="#fdfdfd"/><stop offset="1" stop-color="#f4f7fa"/></linearGradient><linearGradient id="dvl" gradientUnits="userSpaceOnUse" x1="153.40" y1="306.81" x2="72.44" y2="309.47"><stop offset="0" stop-color="#ffffff"/><stop offset="1" stop-color="#fbfcfd"/></linearGradient><linearGradient id="dst" gradientUnits="userSpaceOnUse" x1="22.90" y1="101.74" x2="22.90" y2="366.47"><stop offset="0" stop-color="#55aafa"/><stop offset="1" stop-color="#3189f1"/></linearGradient><linearGradient id="dck" gradientUnits="userSpaceOnUse" x1="114.52" y1="190.69" x2="244.49" y2="135.83"><stop offset="0" stop-color="#439bf9"/><stop offset="1" stop-color="#6cbff9"/></linearGradient></defs><path fill="#9fc9f5" d="M7.99,93.21 L160.33,0 L321.72,95.35 L321.72,257.81 L152.34,360.08 L72.44,309.47 L72.44,275.38 L87.36,266.33 L153.4,306.81 L277.51,230.64 L277.51,121.98 L160.86,52.73 L51.67,117.18Z"/><path fill="url(#dul)" d="M7.99,93.21 L160.33,0 L160.86,52.73 L51.67,117.18Z"/><path fill="url(#dur)" d="M160.33,0 L321.72,95.35 L277.51,121.98 L160.86,52.73Z"/><path fill="url(#dr)" d="M321.72,95.35 L321.72,257.81 L277.51,230.64 L277.51,121.98Z"/><path fill="url(#dvr)" d="M321.72,257.81 L152.34,360.08 L153.4,306.81 L277.51,230.64Z"/><path fill="url(#dvl)" d="M152.34,360.08 L72.44,309.47 L72.44,275.38 Q72.44,266.33 80.96,266.33 L87.36,266.33 L153.4,306.81 Z"/><path fill="url(#dst)" d="M0,101.74 L46.34,126.77 L46.34,366.47 L0,341.43Z"/><path fill="url(#dck)" d="M239.7,135.29 Q244.49,135.83 244.49,141.69 L156.07,231.71 Q150.21,233.84 146.48,230.64 L115.59,194.42 Q112.92,191.22 114.52,188.03 L118.25,183.23 Q121.45,181.1 124.64,182.7 L150.74,200.28 Q152.34,201.34 153.94,200.81 Z"/><g transform="translate(405.7 130.0)"><path fill="#ffffff" fill-rule="evenodd" d="M369.4,0.4C371.88,-0.22 374.45,0 377,0C386.63,0 394.99,2.71 403.6,6.4C406.14,7.49 414.02,10.61 412.4,14.4C411.15,17.32 408.56,20.15 406.8,22.8C406.26,23.6 405.57,25.28 404.6,25.6C403.2,26.07 401.86,24.9 400.8,24.2C398.18,22.45 395.27,20.83 392.4,19.6C390.45,18.76 388.28,18.32 386.2,17.8C376.53,15.38 358.45,15.99 357,29C356.03,37.75 363.29,40.41 369.8,43.2C377.97,46.7 387.64,46.7 395.8,50.2C399.84,51.93 404.48,52.88 407.8,56.2C412.23,60.63 416.28,66.48 417,73C418.39,85.47 412.52,99.49 400.6,104.6C394.23,107.33 388.04,109.22 381,110C376.8,110.47 373.05,109.45 369,109C360.7,108.08 352.08,106.72 345,102C342.63,100.42 334.84,97.04 336.4,93.4C336.8,92.46 337.66,92.01 338.2,91.2C339.78,88.83 342.6,83.33 345.4,82.4C347.08,81.84 348.26,83.86 349.2,84.8C350.98,86.58 354.52,88.22 356.8,89.2C360.51,90.79 364.87,92.54 369,93C370.65,93.18 372.35,92.82 374,93C375.24,93.14 376.54,93.98 377.8,93.8C378.88,93.65 379.92,93.12 381,93C383.85,92.68 386.11,92.95 388.8,91.8C394.58,89.32 399.24,85.87 400,79C400.2,77.18 399.25,75.93 398.6,74.4C396.12,68.61 390.56,66.64 384.8,65.2C374.81,62.7 364.72,60.59 355.4,56.6C352.77,55.47 349.31,53.91 347.2,51.8C335.12,39.72 337.03,16.98 351.4,7.4C357.23,3.52 362.7,2.08 369.4,0.4ZM814.4,0.4C819.62,-0.9 824.86,0.43 830,1C836.45,1.72 841.79,3.91 847.6,6.4C850.22,7.52 852.6,9.4 855,11C855.93,11.62 857.05,12.26 856.6,13.6C855.59,16.63 852.38,19.93 850.6,22.6C849.98,23.53 849.23,25.35 848,25.6C846.63,25.87 845.25,24.5 844.2,23.8C841.81,22.2 839.03,20.73 836.4,19.6C834.47,18.77 832.04,18.51 830,18C828.71,17.68 827.32,17.15 826,17C817.18,16.02 801.29,17.35 800,29C798.78,39.95 813.17,43.04 821,45C822.93,45.48 824.91,45.73 826.8,46.2C838.12,49.03 852.52,52.56 857.6,64.4C858.62,66.77 859.7,68.32 860,71C860.34,74.1 861.36,76.76 861,80C860.47,84.81 858.42,88.36 856.6,92.6C854.44,97.65 849.11,101.59 844.6,104.6C839.97,107.69 833.4,108.4 828,109C826.65,109.15 825.35,109.85 824,110C820.12,110.43 816.74,109.42 813,109C811.35,108.82 809.65,109.18 808,109C803.3,108.48 798.6,106.4 794.4,104.6C792.19,103.65 790.26,103.17 788.2,101.8C785.82,100.21 783.51,98.34 781.2,96.8C780.48,96.32 779.02,95.53 779.4,94.4C780.5,91.1 784.44,87.16 786.8,84.8C787.55,84.05 787.78,82.64 789,82.4C790.07,82.19 791.74,83.82 792.6,84.4C795.84,86.56 799.07,88.89 802.6,90.4C806.55,92.09 810.79,92.53 815,93C817.07,93.23 818.84,94.24 821,94C822.35,93.85 823.65,93.15 825,93C827.5,92.72 829.45,92.81 831.8,91.8C837.25,89.46 842.26,86.62 843,80C844.42,67.23 829.08,65.27 820,63C806.24,59.56 790.69,56.62 784.6,42.4C782.94,38.52 783,34.11 783,30C783,25.48 783.67,22.44 785.4,18.4C787.56,13.37 791.34,9.77 795.8,6.8C801.72,2.85 807.68,2.08 814.4,0.4ZM1.4,2.4C3.59,1.46 6.67,2 9,2C14.33,2 19.67,2 25,2C31.86,2 39.19,1.24 46,2C59.63,3.51 70.86,11.35 76.2,23.8C78.1,28.24 78,33.29 78,38C78,43.51 76.52,48.45 74.4,53.4C71.69,59.71 65.56,64.05 59.6,66.6C56.47,67.94 53.56,69.6 50,70C46.05,70.44 41.95,69.56 38,70C36.65,70.15 35.35,70.85 34,71C30.43,71.4 26.59,71 23,71C21.7,71 19.63,70.57 18.6,71.6C17.2,73 18,77.17 18,79C18,85.67 18,92.33 18,99C18,101.92 18.82,107.58 15,108C11.43,108.4 7.59,108 4,108C2.91,108 1.47,108.27 0.6,107.4C-0.56,106.24 0,103.49 0,102C0,97.33 0,92.67 0,88C0,69.33 0,50.67 0,32C0,24.67 0,17.33 0,10C0,8.1 -0.86,3.37 1.4,2.4ZM18.6,19.6C19.47,18.73 20.91,19 22,19C25.33,19 28.67,19 32,19C38.39,19 45.44,18.05 51.4,20.6C59.47,24.06 63.14,35 59.8,42.8C58.95,44.78 58.41,47.19 56.8,48.8C54.5,51.1 50.31,53.63 47,54C45.68,54.15 44.32,53.85 43,54C41.65,54.15 40.35,54.85 39,55C36.18,55.31 33.32,54.21 30.6,54.6C27.73,55.01 24.93,55 22,55C20.91,55 19.47,55.27 18.6,54.4C17.44,53.24 18,50.49 18,49C18,44.67 18,40.33 18,36C18,32 18,28 18,24C18,22.7 17.57,20.63 18.6,19.6ZM110.4,2.4C112.59,1.46 115.67,2 118,2C123.67,2 129.33,2 135,2C142.84,2 151.22,1.14 159,2C165.47,2.72 174.54,5.14 179.2,9.8C180.2,10.8 181.8,11.2 182.8,12.2C187.42,16.82 190.3,23.66 191,30C191.34,33.1 192.36,35.76 192,39C191.44,44 189.5,48.16 187.6,52.6C187.15,53.66 186.66,54.94 185.8,55.8C183.8,57.8 181.8,59.8 179.8,61.8C177.75,63.85 174.12,65.72 171.4,66.4C170.31,66.67 167.85,67.55 167.6,68.8C167.43,69.66 168.36,70.53 168.8,71.2C170.01,73.02 171.42,74.63 172.6,76.4C177.66,83.98 183.56,90.85 188.6,98.4C190.14,100.71 191.85,103.25 193.8,105.2C194.27,105.67 195.04,106.76 194.4,107.4C193.24,108.56 190.49,108 189,108C185.33,108 181.67,108 178,108C176.28,108 174.34,108.34 173,107C170.08,104.08 167.92,99.88 165.6,96.4C163.25,92.88 160.35,89.53 158,86C156.18,83.27 154.49,80.09 152.2,77.8C150.18,75.78 149.37,71.59 146.6,70.4C144.91,69.68 142.79,70 141,70C137.67,70 134.33,70 131,70C129.91,70 128.47,69.73 127.6,70.6C126.09,72.11 127,77 127,79C127,85.33 127,91.67 127,98C127,100.47 127.78,104.52 126.8,106.8C126.15,108.31 124.31,108 123,108C119.67,108 116.33,108 113,108C111.91,108 110.47,108.27 109.6,107.4C108.44,106.24 109,103.49 109,102C109,97 109,92 109,87C109,66.67 109,46.33 109,26C109,20 109,14 109,8C109,6.4 108.51,3.21 110.4,2.4ZM127.6,19.6C128.63,18.57 130.7,19 132,19C136,19 140,19 144,19C152.77,19 163.08,17.48 169.8,24.2C171.41,25.81 171.95,28.22 172.8,30.2C173.78,32.48 174,34.5 174,37C174,39.18 173.27,42.37 172.4,44.4C171.72,45.99 170.34,47.06 169.2,48.2C161.7,55.7 149.93,54 140,54C137,54 134,54 131,54C129.91,54 128.47,54.27 127.6,53.4C126.44,52.24 127,49.49 127,48C127,43.33 127,38.67 127,34C127,30.67 127,27.33 127,24C127,22.7 126.57,20.63 127.6,19.6ZM231.6,2.6C232.63,1.57 234.7,2 236,2C239.33,2 242.67,2 246,2C260.33,2 274.67,2 289,2C292.67,2 296.33,2 300,2C302.48,2 304.67,2.06 305,5C305.38,8.43 305.08,12.23 304.6,15.6C304.5,16.29 304.74,17.66 304.2,18.2C303.44,18.96 301.99,19 301,19C298.33,19 295.67,19 293,19C283,19 273,19 263,19C259.33,19 255.67,19 252,19C250.69,19 248.85,18.69 248.2,20.2C247.12,22.72 248,27.27 248,30C248,33.67 248,37.33 248,41C248,42.3 247.57,44.37 248.6,45.4C250.11,46.91 255,46 257,46C264.67,46 272.33,46 280,46C284.67,46 289.33,46 294,46C295.69,46 297.76,45.8 298,48C298.36,51.24 298,54.74 298,58C298,59.09 298.27,60.53 297.4,61.4C295.78,63.02 290.16,62 288,62C279,62 270,62 261,62C258,62 255,62 252,62C250.91,62 249.47,61.73 248.6,62.6C247.31,63.89 248,67.34 248,69C248,75.53 247.28,82.52 248,89C248.19,90.72 249.52,91 251,91C254.33,91 257.67,91 261,91C270.33,91 279.67,91 289,91C293.24,91 297.79,90.53 302,91C306.73,91.53 305,99.62 305,103C305,104.3 305.43,106.37 304.4,107.4C302.89,108.91 298,108 296,108C288,108 280,108 272,108C262,108 252,108 242,108C239.67,108 237.33,108 235,108C233.91,108 232.47,108.27 231.6,107.4C230.31,106.11 231,102.66 231,101C231,95.33 231,89.67 231,84C231,80.61 229.61,77.53 230,74C230.15,72.65 230.85,71.35 231,70C231.41,66.32 231.41,61.68 231,58C230.85,56.65 230.15,55.35 230,54C229.56,50.01 229.56,44.99 230,41C230.15,39.65 230.85,38.35 231,37C231.47,32.79 231,28.24 231,24C231,21.85 230.23,20.09 230,18C229.65,14.81 231,12.07 231,9C231,7.34 230.31,3.89 231.6,2.6ZM484.6,2.6C485.92,1.72 487.48,2 489,2C492,2 495,2 498,2C499.27,2 501.2,1.8 502.2,2.8C503.6,4.2 504.03,7.4 504.8,9.2C506.52,13.21 507.88,17.38 509.6,21.4C516.13,36.64 522.06,52.15 528.6,67.4C531.61,74.43 534.39,81.57 537.4,88.6C538.67,91.56 539.21,95.32 541,98C542.37,100.05 543.41,103.29 544.4,105.6C544.77,106.47 544.76,107.39 543.8,107.8C541.99,108.58 538.95,108 537,108C534.14,108 528.18,109.18 526,107C524.47,105.47 524.22,102.51 523.4,100.6C521.79,96.84 520.41,92.97 518.8,89.2C517.75,86.75 517.22,83.36 514,83C504.27,81.92 493.79,83 484,83C480.09,83 474.02,81.85 470.4,83.4C468,84.43 468.07,87.16 467.2,89.2C465.71,92.68 464.09,96.12 462.6,99.6C461.61,101.91 461.23,105.57 459.4,107.4C458.53,108.27 457.09,108 456,108C453.67,108 451.33,108 449,108C446.91,108 444.19,108.46 442.2,107.8C441.7,107.63 441.42,107.14 441.6,106.6C442.45,104.04 443.52,101.11 444.6,98.6C448.91,88.55 453.1,78.44 457.4,68.4C464.35,52.18 470.45,35.61 477.4,19.4C479.11,15.41 480.7,11.38 482.4,7.4C483.08,5.81 483.06,3.62 484.6,2.6ZM492.6,25.6C493.38,25.13 493.92,26.15 494.2,26.8C495.17,29.06 495.64,31.96 497,34C498.89,36.83 499.28,40.32 500.6,43.4C502.83,48.6 504.57,54 506.8,59.2C507.6,61.07 508.4,62.93 509.2,64.8C509.49,65.47 509.66,66.51 508.8,66.8C506.54,67.55 503.37,67 501,67C495.33,67 489.67,67 484,67C482.17,67 478,67.8 476.6,66.4C475.81,65.61 476.89,63.93 477.2,63.2C478.01,61.3 478.59,59.29 479.4,57.4C482.81,49.44 485.99,41.36 489.4,33.4C490.31,31.27 490.51,26.85 492.6,25.6ZM576.6,2.6C577.63,1.57 579.7,2 581,2C584,2 587,2 590,2C591.48,2 592.81,2.28 593,4C593.76,10.81 593,18.14 593,25C593,39 593,53 593,67C593,72.67 593,78.33 593,84C593,85.95 592.42,88.99 593.2,90.8C593.71,91.98 594.9,92 596,92C599,92 602,92 605,92C613.67,92 622.33,92 631,92C634.92,92 639.11,91.57 643,92C647.37,92.49 645.31,96.22 645,99C644.86,100.29 645,101.7 645,103C645,104.48 645.54,107.05 643.8,107.8C642.46,108.37 640.43,108 639,108C635.67,108 632.33,108 629,108C616.67,108 604.33,108 592,108C588,108 584,108 580,108C578.69,108 576.85,108.31 576.2,106.8C575.63,105.46 576,103.43 576,102C576,98 576,94 576,90C576,76.33 576,62.67 576,49C576,37.67 576,26.33 576,15C576,12 576,9 576,6C576,4.91 575.73,3.47 576.6,2.6ZM678.4,2.4C680.09,1.68 682.21,2 684,2C687.67,2 691.33,2 695,2C708,2 721,2 734,2C738.33,2 742.67,2 747,2C748.69,2 750.76,1.8 751,4C751.4,7.57 751,11.41 751,15C751,16.09 751.27,17.53 750.4,18.4C749.53,19.27 748.09,19 747,19C744.67,19 742.33,19 740,19C729.67,19 719.33,19 709,19C705.67,19 702.33,19 699,19C697.91,19 696.47,18.73 695.6,19.6C694.31,20.89 695,24.34 695,26C695,31.88 694.35,38.16 695,44C695.24,46.2 697.31,46 699,46C703,46 707,46 711,46C719.33,46 727.67,46 736,46C738,46 742.89,45.09 744.4,46.6C745.27,47.47 745,48.91 745,50C745,53.26 745.36,56.76 745,60C744.81,61.72 743.48,62 742,62C739,62 736,62 733,62C724.33,62 715.67,62 707,62C704.01,62 698.95,61.02 696.2,62.2C694.28,63.02 695,66.38 695,68C695,72.9 695.54,78.14 695,83C694.85,84.32 694,85.68 694,87C694,92.81 702.23,91 706,91C715.33,91 724.67,91 734,91C738.24,91 742.79,90.53 747,91C753.43,91.71 752,96.91 752,102C752,103.49 752.56,106.24 751.4,107.4C750.37,108.43 748.3,108 747,108C743.67,108 740.33,108 737,108C722.67,108 708.33,108 694,108C690,108 686,108 682,108C680.52,108 677.95,108.54 677.2,106.8C676.52,105.22 677,102.69 677,101C677,96.67 677,92.33 677,88C677,73.33 677,58.67 677,44C677,33.67 677,23.33 677,13C677,10.72 675.78,3.52 678.4,2.4Z"/></g><g transform="translate(405.7 282.0)"><path fill="#60b9f7" fill-rule="evenodd" d="M740.4,0.4C742.09,-0.02 743.34,0.82 745,1C753.36,1.93 758,8.95 758,17C758,18.79 758.13,20.7 757.4,22.4C755.63,26.52 752.74,29.83 748.6,31.6C747.36,32.13 746.44,32.84 745,33C740.5,33.5 734.6,33.2 731.2,29.8C728.41,27.01 726.45,24.03 726,20C725.86,18.76 725.02,17.46 725.2,16.2C725.55,13.78 726.47,11.57 727.4,9.4C727.85,8.34 728.34,7.06 729.2,6.2C732.49,2.91 735.86,1.54 740.4,0.4ZM739.4,5.4C745.89,3.78 752.3,9.72 753,16C753.45,20.09 750.16,25.79 746.4,27.4C745.02,27.99 743.46,28 742,28C739.27,28 735.83,27.23 733.8,25.2C733.08,24.48 732.78,23.48 732.4,22.6C729.57,16 731.59,7.35 739.4,5.4ZM10.4,1.4C14.71,0.32 19.64,0.7 23.6,2.4C25.44,3.19 28.22,4.78 26,7C24.53,8.47 22.79,7.2 21.4,6.6C19.81,5.92 17.75,5.19 16,5C9.75,4.31 4.39,12.47 5,18C5.74,24.66 11.48,28.72 18,28C20.26,27.75 22.65,25.17 24.8,25.6C25.51,25.74 25.76,26.36 26.2,26.8C26.78,27.38 27.6,27.8 27.4,28.8C27.2,29.81 23.37,31.99 22.4,32.4C20.41,33.25 18.1,33 16,33C11.87,33 7.16,31.76 4.2,28.8C3.34,27.94 2.85,26.66 2.4,25.6C1.58,23.69 0.24,22.18 0,20C-0.82,12.59 2.45,3.39 10.4,1.4ZM58.4,1.4C61.46,0.64 66.42,0.32 69.4,1.6C70.52,2.08 71.48,2.92 72.6,3.4C73.48,3.78 74.48,4.08 75.2,4.8C83.71,13.31 79.9,27.9 69.4,32.4C67.41,33.25 65.1,33 63,33C57.48,33 50.88,29.72 48.6,24.4C44.72,15.35 48.26,3.94 58.4,1.4ZM61.4,5.4C66.04,4.24 71.51,7.18 73.4,11.6C76.24,18.22 72.42,27.18 65,28C58.95,28.67 55.44,26.02 53.2,20.8C52.73,19.71 52,18.25 52,17C52,15.75 52.73,14.29 53.2,13.2C54.89,9.26 57.04,6.49 61.4,5.4ZM102.6,1.6C104.55,-0.35 107.63,1.45 108.8,3.2C111,6.49 112.65,9.97 114.8,13.2C115.41,14.12 116.3,16.23 117.4,16.6C119.08,17.16 120.13,13.81 120.8,12.8C121.93,11.1 123.6,9.27 124.4,7.4C125.16,5.62 126.39,3.21 127.8,1.8C128.66,0.94 130.73,0.74 131.8,1.2C133.75,2.04 132.97,5.87 133.4,7.6C134.84,13.38 134,20.05 134,26C134,27.72 134.57,30.83 133.2,32.2C131.17,34.23 128.27,32.4 128,30C127.5,25.46 128,20.57 128,16C128,15.1 128.84,12.04 128.2,11.4C127.45,10.65 125.83,14.26 125.6,14.6C123.95,17.07 121.77,19.87 120.6,22.6C120.2,23.53 119.73,25.22 118.6,25.6C117.02,26.13 116.3,24.45 115.6,23.4C113.71,20.56 112.11,17.66 110.2,14.8C109.82,14.23 108.21,10.99 107.4,11.8C106.56,12.64 107,14.94 107,16C107,20 107,24 107,28C107,30.38 107.35,33.37 104,33C101,32.67 102,28.07 102,26C102,20 102,14 102,8C102,6.34 101.31,2.89 102.6,1.6ZM158.4,1.4C160.09,0.68 162.21,1 164,1C168.05,1 174.6,0 177.8,3.2C179.05,4.45 180.67,5.9 181.4,7.6C182.69,10.61 182.22,16.38 179.8,18.8C176.89,21.71 174.03,22 170,22C168.34,22 164.89,21.31 163.6,22.6C161.2,25 165.58,33 160,33C157.07,33 158.19,28.71 158,27C157.85,25.68 157,24.32 157,23C157,22.22 157.49,21.37 157.6,20.6C158.14,16.82 158,12.84 158,9C158,7.7 158.14,6.29 158,5C157.87,3.84 156.86,2.06 158.4,1.4ZM163.6,6.6C164.63,5.57 166.7,6 168,6C169.79,6 171.91,5.68 173.6,6.4C175.95,7.41 177.59,11.28 176.6,13.6C175.07,17.17 171.27,17 168,17C166.7,17 164.63,17.43 163.6,16.4C162.44,15.24 163,12.49 163,11C163,9.7 162.57,7.63 163.6,6.6ZM204.4,1.4C208.71,-0.45 209,4.05 209,7C209,11.67 209,16.33 209,21C209,22.69 208.52,25.22 209.2,26.8C209.85,28.31 211.69,28 213,28C215.33,28 217.67,28 220,28C221.17,28 222.7,27.73 223.8,28.2C225.5,28.93 225.5,32.07 223.8,32.8C222.46,33.37 220.43,33 219,33C215.67,33 212.33,33 209,33C207.49,33 205,33.4 203.8,32.2C203.09,31.49 203.92,30.02 203.8,29.2C203.24,25.26 204,21.08 204,17C204,15.04 204.22,12.94 204,11C203.77,8.91 203,7.15 203,5C203,3.78 203.08,1.97 204.4,1.4ZM246.6,1.6C248.01,0.19 250.78,1.01 251,3C251.83,10.46 251,18.49 251,26C251,28.07 252,32.67 249,33C245.27,33.41 246,29.49 246,27C246,21 246,15 246,9C246,7.17 245.2,3 246.6,1.6ZM286.6,1.6C289.67,-0.45 292.24,1.9 293.4,4.6C295.4,9.27 297.4,13.93 299.4,18.6C300.31,20.73 300.69,23.04 302,25C302.87,26.31 302.99,27.98 303.6,29.4C303.93,30.18 304.47,30.49 304.6,31.4C304.7,32.1 304.46,32.52 303.8,32.8C298.24,35.18 299.08,26.45 295,26C292.08,25.68 288.94,26 286,26C284.83,26 283.3,25.73 282.2,26.2C278.78,27.67 280.46,33 276,33C275.4,33 274.75,33.04 274.2,32.8C272,31.86 274.87,28.63 275.4,27.4C275.62,26.89 275.58,26.31 275.8,25.8C278.29,19.98 280.91,14.21 283.4,8.4C284.3,6.3 284.58,2.95 286.6,1.6ZM288.6,8.6C289.27,7.93 290,9.33 290.2,9.8C291.28,12.31 292.73,14.94 293.4,17.6C293.7,18.8 294.31,20.15 292.8,20.8C291.16,21.5 287.77,21.2 286,21C285.43,20.94 284.54,20.68 284.4,20C284.2,18.99 284.84,18.04 285.2,17.2C286.01,15.3 286.59,13.29 287.4,11.4C287.82,10.41 287.77,9.43 288.6,8.6ZM327.6,1.6C330.16,-0.96 333.17,2.76 334.4,4.6C335.65,6.48 337.21,8.61 338.8,10.2C341.13,12.53 342.47,15.87 344.8,18.2C345.7,19.1 346.69,22.4 348.2,22.4C349.56,22.4 349,17.79 349,17C349,13 349,9 349,5C349,2.77 349.14,0.68 352,1C355,1.33 354,5.93 354,8C354,14 354,20 354,26C354,27.66 354.69,31.11 353.4,32.4C350.84,34.96 347.83,31.24 346.6,29.4C345.35,27.52 343.79,25.39 342.2,23.8C339.87,21.47 338.53,18.13 336.2,15.8C335.3,14.9 334.31,11.6 332.8,11.6C331.44,11.6 332,16.21 332,17C332,21 332,25 332,29C332,31.23 331.86,33.32 329,33C325.35,32.59 327,29.62 327,27C327,21 327,15 327,9C327,7.17 326.2,3 327.6,1.6ZM387.4,1.4C391.71,0.32 396.64,0.7 400.6,2.4C403.61,3.69 405.53,5.07 402.8,7.8C401.19,9.41 399.85,7.22 398.4,6.6C396.95,5.98 394.61,5 393,5C391.75,5 390.29,5.73 389.2,6.2C387.81,6.79 386.35,7.05 385.2,8.2C382.54,10.86 381.6,15.39 382,19C382.7,25.31 389.13,28.65 395,28C397.01,27.78 399.81,24.8 401.6,25.4C406.49,27.03 401.43,31.24 399.2,32.2C397.26,33.03 395.06,33 393,33C387.56,33 383.99,31.59 380.2,27.8C378.23,25.83 377.29,22.64 377,20C376.86,18.76 376.02,17.46 376.2,16.2C377.1,9.92 380.85,3.04 387.4,1.4ZM426.4,1.4C428.09,0.68 430.21,1 432,1C435.67,1 439.33,1 443,1C444.84,1 447.72,0.45 448,3C448.41,6.73 444.49,6 442,6C439.67,6 437.33,6 435,6C433.91,6 432.47,5.73 431.6,6.6C430.53,7.67 430.85,10.62 431,12C431.24,14.2 433.31,14 435,14C437.92,14 446.52,12.28 446,17C445.69,19.8 441.96,19 440,19C438,19 433.11,18.09 431.6,19.6C430.42,20.78 430.83,24.46 431,26C431.24,28.2 433.31,28 435,28C438.92,28 443.11,27.57 447,28C448.99,28.22 449.81,30.99 448.4,32.4C447.74,33.06 446.85,33 446,33C443.67,33 441.33,33 439,33C436,33 433,33 430,33C428.91,33 427.47,33.27 426.6,32.4C425.76,31.56 426.06,30.24 425.8,29.2C424.84,25.36 425.26,22.61 425.8,18.8C425.98,17.54 425.14,16.24 425,15C424.76,12.85 424.76,10.15 425,8C425.12,6.92 425.65,5.88 425.8,4.8C425.97,3.63 424.87,2.06 426.4,1.4ZM502.6,1.6C504.11,0.09 509,1 511,1C513.7,1 516.65,0.71 519.2,1.8C523.42,3.61 526,7.35 526,12C526,13.46 525.99,15.02 525.4,16.4C523.44,20.98 518.49,22 514,22C512.28,22 509.17,21.43 507.8,22.8C506.29,24.31 507,28.08 507,30C507,31.48 506.72,32.81 505,33C501.27,33.41 502,29.49 502,27C502,21 502,15 502,9C502,7.17 501.2,3 502.6,1.6ZM507.6,6.6C508.63,5.57 510.7,6 512,6C513.79,6 515.91,5.68 517.6,6.4C520.24,7.53 521.75,10.92 520.6,13.6C519.13,17.03 514.31,18 511,18C510.01,18 508.56,17.96 507.8,17.2C506.43,15.83 507,12.72 507,11C507,9.7 506.57,7.63 507.6,6.6ZM548.6,1.6C549.67,0.53 552.17,0.73 552.8,2.2C553.17,3.06 553,4.1 553,5C553,10 553,15 553,20C553,22.06 552.57,24.66 553.4,26.6C553.97,27.92 555.78,28 557,28C559.33,28 561.67,28 564,28C565.17,28 566.7,27.73 567.8,28.2C569.5,28.93 569.5,32.07 567.8,32.8C566.46,33.37 564.43,33 563,33C559.67,33 556.33,33 553,33C551.52,33 548.95,33.54 548.2,31.8C547.63,30.46 548,28.43 548,27C548,23 548,19 548,15C548,11.67 548,8.33 548,5C548,3.91 547.73,2.47 548.6,1.6ZM601.6,1.6C603.61,-0.41 607.46,1.41 608.4,3.6C611.52,10.88 614.28,18.32 617.4,25.6C617.92,26.82 618.08,28.18 618.6,29.4C619.05,30.44 620.57,32.04 618.8,32.8C613.25,35.18 614.21,26.47 610,26C607.08,25.68 603.94,26 601,26C599.83,26 598.3,25.73 597.2,26.2C594.31,27.44 595.26,34.97 590.2,32.8C587.61,31.69 590.74,26.95 591.4,25.4C593.4,20.73 595.4,16.06 597.4,11.4C598.4,9.06 599.4,6.73 600.4,4.4C600.82,3.41 600.77,2.43 601.6,1.6ZM604.2,8.6C605.49,8.6 605.47,10.42 605.8,11.2C606.81,13.57 607.58,16.03 608.6,18.4C608.9,19.1 610.2,20.33 608.8,20.8C606.81,21.46 604.09,21 602,21C601.23,21 599.62,21.08 599.4,20C599.13,18.66 600.69,16.4 601.2,15.2C601.91,13.55 602.49,11.85 603.2,10.2C603.39,9.77 603.44,8.6 604.2,8.6ZM636.6,1.6C637.76,0.44 640.51,1 642,1C646.67,1 651.33,1 656,1C657.62,1 660.98,0.28 661.8,2.2C662.5,3.84 661.33,5.42 659.8,5.8C657.44,6.39 651.7,4.67 651.2,8.2C651.02,9.46 651.86,10.76 652,12C652.11,12.97 652,14.03 652,15C652,17.15 651.23,18.91 651,21C650.82,22.62 651,24.37 651,26C651,27.75 651.85,31.92 649.8,32.8C646.49,34.22 646,30.1 646,28C646,21.47 646.72,14.48 646,8C645.58,4.26 639.49,6.78 637.2,5.8C635.73,5.17 635.53,2.67 636.6,1.6ZM683.6,1.6C684.76,0.44 687.51,1 689,1C693.33,1 697.67,1 702,1C703.48,1 706,0.79 706,3C706,4.87 704.72,5.81 703,6C699.76,6.36 696.26,6 693,6C691.69,6 689.85,5.69 689.2,7.2C688.83,8.06 689,9.1 689,10C689,11.3 688.57,13.37 689.6,14.4C690.26,15.06 691.15,15 692,15C694.33,15 696.67,15 699,15C700.6,15 704,14.45 704,17C704,20.97 699.4,18.73 697,19C695.65,19.15 694.35,19.85 693,20C692.09,20.1 690.13,19.07 689.4,19.8C688.7,20.5 689,22.14 689,23C689,25.79 690.42,33 686,33C682.62,33 683,29.37 683,27C683,21 683,15 683,9C683,7.17 682.2,3 683.6,1.6ZM780.6,1.6C781.89,0.31 785.34,1 787,1C791.05,1 795.05,0.59 798.8,2.2C800.32,2.85 802.7,3.96 803.4,5.6C804.72,8.67 805.85,12.02 804.4,15.4C803.54,17.4 801.74,18.84 800,20C799.07,20.62 797.95,21.26 798.4,22.6C799.31,25.33 802.22,27.82 803.8,30.2C804.14,30.71 805.93,31.87 805.2,32.6C803.98,33.82 800.1,33.1 799,32C796.83,29.83 795.37,26.97 793.2,24.8C792.1,23.7 791.84,22.2 790,22C789.34,21.93 788.67,22 788,22C783.98,22 785,26.06 785,29C785,31.32 784.35,34.15 781.2,32.8C779.22,31.95 780.21,28.84 779.8,27.2C778.3,21.21 780,15.15 780,9C780,7.17 779.2,3 780.6,1.6ZM785.6,6.6C786.76,5.44 789.51,6 791,6C794.34,6 798.52,5.66 799,10C799.07,10.66 799,11.33 799,12C799,12.86 798.95,13.79 798.6,14.6C797.26,17.73 791.58,17 789,17C787.91,17 786.47,17.27 785.6,16.4C784.44,15.24 785,12.49 785,11C785,9.7 784.57,7.63 785.6,6.6ZM827.6,1.6C828.86,0.34 831.83,0.83 833,2C834.14,3.14 834.99,4.98 835.6,6.4C836.67,8.9 838.7,11.54 840.2,13.8C840.76,14.65 841.64,17.4 842.8,17.4C843.64,17.4 845.15,14.27 845.6,13.6C846.81,11.78 848.53,9.43 849.4,7.4C850.84,4.04 852.95,-0.59 857.6,1.4C859.69,2.3 859,6.25 859,8C859,14 859,20 859,26C859,27.72 859.57,30.83 858.2,32.2C856.81,33.59 854.23,33.07 854,31C853.78,29.02 854.22,26.98 854,25C853.85,23.65 853.15,22.35 853,21C852.82,19.38 853,17.63 853,16C853,15.33 854.28,11.4 853,11.4C851.73,11.4 851.15,13.77 850.6,14.6C848.71,17.44 847.06,20.4 845.2,23.2C844.64,24.04 843.39,25.64 842.2,25.4C841.12,25.18 840.54,23.82 840,23C839.32,21.98 838.88,20.72 838.4,19.6C837.64,17.83 836.16,16.38 835.4,14.6C835.12,13.95 833.32,10.88 832.4,11.8C831.56,12.64 832,14.94 832,16C832,20 832,24 832,28C832,30.38 832.35,33.37 829,33C826,32.67 827,28.07 827,26C827,20 827,14 827,8C827,6.34 826.31,2.89 827.6,1.6Z"/></g></svg>