<svg xmlns="http://www.w3.org/2000/svg" width="256" height="256" viewBox="0 0 256 256" role="img" aria-label="Pre-Sales Compliance Platform"><defs><linearGradient id="aul" gradientUnits="userSpaceOnUse" x1="28.03" y1="68.96" x2="127.65" y2="8.00"><stop offset="0" stop-color="#2870ce"/><stop offset="1" stop-color="#4fa1f2"/></linearGradient><linearGradient id="aur" gradientUnits="userSpaceOnUse" x1="127.65" y1="8.00" x2="233.20" y2="70.35"><stop offset="0" stop-color="#54a8f5"/><stop offset="1" stop-color="#4c9ff2"/></linearGradient><linearGradient id="ar" gradientUnits="userSpaceOnUse" x1="233.20" y1="70.35" x2="233.20" y2="176.59"><stop offset="0" stop-color="#3d8ee6"/><stop offset="1" stop-color="#236cc7"/></linearGradient><linearGradient id="avr" gradientUnits="userSpaceOnUse" x1="233.20" y1="176.59" x2="122.43" y2="243.47"><stop offset="0" stop-color="#21395f"/><stop offset="1" stop-color="#1b3157"/></linearGradient><linearGradient id="avl" gradientUnits="userSpaceOnUse" x1="123.12" y1="208.64" x2="70.18" y2="210.38"><stop offset="0" stop-color="#172d54"/><stop offset="1" stop-color="#122647"/></linearGradient><linearGradient id="ast" gradientUnits="userSpaceOnUse" x1="37.78" y1="74.53" x2="37.78" y2="247.65"><stop offset="0" stop-color="#13284c"/><stop offset="1" stop-color="#0f2244"/></linearGradient><linearGradient id="ack" gradientUnits="userSpaceOnUse" x1="97.70" y1="132.70" x2="182.69" y2="96.82"><stop offset="0" stop-color="#1e67c1"/><stop offset="1" stop-color="#4498ed"/></linearGradient></defs><path fill="#3d8ee6" d="M28.03,68.96 L127.65,8 L233.2,70.35 L233.2,176.59 L122.43,243.47 L70.18,210.38 L70.18,188.09 L79.93,182.17 L123.12,208.64 L204.28,158.83 L204.28,87.77 L128,42.48 L56.59,84.63Z"/><path fill="url(#aul)" d="M28.03,68.96 L127.65,8 L128,42.48 L56.59,84.63Z"/><path fill="url(#aur)" d="M127.65,8 L233.2,70.35 L204.28,87.77 L128,42.48Z"/><path fill="url(#ar)" d="M233.2,70.35 L233.2,176.59 L204.28,158.83 L204.28,87.77Z"/><path fill="url(#avr)" d="M233.2,176.59 L122.43,243.47 L123.12,208.64 L204.28,158.83Z"/><path fill="url(#avl)" d="M122.43,243.47 L70.18,210.38 L70.18,188.09 Q70.18,182.17 75.75,182.17 L79.93,182.17 L123.12,208.64 Z"/><path fill="url(#ast)" d="M22.8,74.53 L53.11,90.9 L53.11,247.65 L22.8,231.28Z"/><path fill="url(#ack)" d="M179.55,96.48 Q182.69,96.82 182.69,100.66 L124.87,159.52 Q121.03,160.92 118.6,158.83 L98.39,135.14 Q96.65,133.05 97.7,130.96 L100.13,127.83 Q102.22,126.43 104.31,127.48 L121.38,138.97 Q122.43,139.67 123.47,139.32 Z"/></svg>